/* XPM */
static char * c_1_xpm[] = {
"64 64 4 1",
" 	c #65845C",
".	c #E5EDC4",
"+	c #D1CA7A",
"@	c #131414",
"                                                                ",
"                                                                ",
"                                                                ",
"                                                                ",
"                                                                ",
"                                                                ",
"                                                                ",
"                                                                ",
"                                                                ",
"                                                      ....      ",
"                                                      ....      ",
"                                                      ....      ",
"                                                      ....      ",
"                                                                ",
"                                                                ",
"                         ....                                   ",
"                         ....                                   ",
"                         ....                                   ",
"                         ....                                   ",
"                                                                ",
"                                                                ",
"                                                                ",
"                                                                ",
"                                                                ",
"                                                                ",
"                                                                ",
"                                                                ",
"                                                                ",
"                                        ++++                    ",
"                                        ++++                    ",
"                                        ++++                    ",
"                                        ++++              ....  ",
"                                        ++++++++          ....  ",
"                                        ++++++++          ....  ",
"                                        ++++++++          ....  ",
"                                        ++++++++                ",
"                                    ++++                        ",
"                                    ++++                        ",
"                                    ++++                        ",
"                ....                ++++                        ",
"                ....        ++++....                            ",
"                ....        ++++....                            ",
"                ....        ++++....                            ",
"                            ++++....                            ",
"                                ++++                            ",
"                                ++++                            ",
"                                ++++                            ",
"                                ++++                            ",
"                                                                ",
"                                @@@@@@@@@@@@@@                  ",
"                                @@@@@@@@@@@@@@                  ",
"                                @@@@@@@@@@@@@@                  ",
"                                @@@@@@@@@@@@@@                  ",
"                                                                ",
"                                                                ",
"                                                                ",
"                                                                ",
"                                                                ",
"                                                                ",
"                                                                ",
"                                                                ",
"                                                                ",
"                                                                ",
"                                                                "};
