/* XPM */
static char * d_0_xpm[] = {
"64 64 2 1",
" 	c None",
".	c #FCE4C5",
"            ....................................                ",
"            ....................................                ",
"            ....................................                ",
"            ....................................                ",
"        ....                                    ....            ",
"        ....                                    ....            ",
"        ....                                    ....            ",
"        ....                                    ....            ",
"    ....                                            ....        ",
"    ....                                            ....        ",
"    ....                                            ....        ",
"    ....                                            ....        ",
"    ....                ................            ....        ",
"    ....                ................            ....        ",
"    ....                ................            ....        ",
"    ....                ................            ....        ",
"    ....            ....            ....            ....        ",
"    ....            ....            ....            ....        ",
"    ....            ....            ....            ....        ",
"    ....            ....            ....            ....        ",
"........            ....            ....            ........    ",
"........            ....            ....            ........    ",
"........            ....            ....            ........    ",
"........            ....            ....            ........    ",
"........            ....            ....            ........    ",
"........            ....            ....            ........    ",
"........            ....            ....            ........    ",
"........            ....            ....            ........    ",
"........            ....            ....            ........    ",
"........            ....            ....            ........    ",
"........            ....            ....            ........    ",
"........            ....            ....            ........    ",
"........            ................                ........    ",
"........            ................                ........    ",
"........            ................                ........    ",
"........            ................                ........    ",
"........                                            ........    ",
"........                                            ........    ",
"........                                            ........    ",
"........                                            ........    ",
"............                                    ............    ",
"............                                    ............    ",
"............                                    ............    ",
"............                                    ............    ",
"............................................................    ",
"............................................................    ",
"............................................................    ",
"............................................................    ",
"............................................................    ",
"............................................................    ",
"............................................................    ",
"............................................................    ",
"    ....................................................        ",
"    ....................................................        ",
"    ....................................................        ",
"    ....................................................        ",
"    ....................................................        ",
"    ....................................................        ",
"    ....................................................        ",
"    ....................................................        ",
"            ....................................                ",
"            ....................................                ",
"            ....................................                ",
"            ....................................                "};
