/* XPM */
static char * d_1_xpm[] = {
"64 64 2 1",
" 	c None",
".	c #FCE4C5",
"            ....................................                ",
"            ....................................                ",
"            ....................................                ",
"            ....................................                ",
"        ....                                    ....            ",
"        ....                                    ....            ",
"        ....                                    ....            ",
"        ....                                    ....            ",
"    ....                                            ....        ",
"    ....                                            ....        ",
"    ....                                            ....        ",
"    ....                                            ....        ",
"    ....                    ....                    ....        ",
"    ....                    ....                    ....        ",
"    ....                    ....                    ....        ",
"    ....                    ....                    ....        ",
"    ....                ........                    ....        ",
"    ....                ........                    ....        ",
"    ....                ........                    ....        ",
"    ....                ........                    ....        ",
"........                    ....                    ........    ",
"........                    ....                    ........    ",
"........                    ....                    ........    ",
"........                    ....                    ........    ",
"........                    ....                    ........    ",
"........                    ....                    ........    ",
"........                    ....                    ........    ",
"........                    ....                    ........    ",
"........                    ....                    ........    ",
"........                    ....                    ........    ",
"........                    ....                    ........    ",
"........                    ....                    ........    ",
"........            ....................            ........    ",
"........            ....................            ........    ",
"........            ....................            ........    ",
"........            ....................            ........    ",
"........                                            ........    ",
"........                                            ........    ",
"........                                            ........    ",
"........                                            ........    ",
"............                                    ............    ",
"............                                    ............    ",
"............                                    ............    ",
"............                                    ............    ",
"............................................................    ",
"............................................................    ",
"............................................................    ",
"............................................................    ",
"............................................................    ",
"............................................................    ",
"............................................................    ",
"............................................................    ",
"    ....................................................        ",
"    ....................................................        ",
"    ....................................................        ",
"    ....................................................        ",
"    ....................................................        ",
"    ....................................................        ",
"    ....................................................        ",
"    ....................................................        ",
"            ....................................                ",
"            ....................................                ",
"            ....................................                ",
"            ....................................                "};
