/* XPM */
static char * d_3_xpm[] = {
"64 64 2 1",
" 	c None",
".	c #FCE4C5",
"            ....................................                ",
"            ....................................                ",
"            ....................................                ",
"            ....................................                ",
"        ....                                    ....            ",
"        ....                                    ....            ",
"        ....                                    ....            ",
"        ....                                    ....            ",
"    ....                                            ....        ",
"    ....                                            ....        ",
"    ....                                            ....        ",
"    ....                                            ....        ",
"    ....            ................                ....        ",
"    ....            ................                ....        ",
"    ....            ................                ....        ",
"    ....            ................                ....        ",
"    ....                            ....            ....        ",
"    ....                            ....            ....        ",
"    ....                            ....            ....        ",
"    ....                            ....            ....        ",
"........                ................            ........    ",
"........                ................            ........    ",
"........                ................            ........    ",
"........                ................            ........    ",
"........                            ....            ........    ",
"........                            ....            ........    ",
"........                            ....            ........    ",
"........                            ....            ........    ",
"........                            ....            ........    ",
"........                            ....            ........    ",
"........                            ....            ........    ",
"........                            ....            ........    ",
"........            ................                ........    ",
"........            ................                ........    ",
"........            ................                ........    ",
"........            ................                ........    ",
"........                                            ........    ",
"........                                            ........    ",
"........                                            ........    ",
"........                                            ........    ",
"............                                    ............    ",
"............                                    ............    ",
"............                                    ............    ",
"............                                    ............    ",
"............................................................    ",
"............................................................    ",
"............................................................    ",
"............................................................    ",
"............................................................    ",
"............................................................    ",
"............................................................    ",
"............................................................    ",
"    ....................................................        ",
"    ....................................................        ",
"    ....................................................        ",
"    ....................................................        ",
"    ....................................................        ",
"    ....................................................        ",
"    ....................................................        ",
"    ....................................................        ",
"            ....................................                ",
"            ....................................                ",
"            ....................................                ",
"            ....................................                "};
