/* XPM */
static char * d_4_xpm[] = {
"64 64 2 1",
" 	c None",
".	c #FCE4C5",
"            ....................................                ",
"            ....................................                ",
"            ....................................                ",
"            ....................................                ",
"        ....                                    ....            ",
"        ....                                    ....            ",
"        ....                                    ....            ",
"        ....                                    ....            ",
"    ....                                            ....        ",
"    ....                                            ....        ",
"    ....                                            ....        ",
"    ....                                            ....        ",
"    ....            ....            ....            ....        ",
"    ....            ....            ....            ....        ",
"    ....            ....            ....            ....        ",
"    ....            ....            ....            ....        ",
"    ....            ....            ....            ....        ",
"    ....            ....            ....            ....        ",
"    ....            ....            ....            ....        ",
"    ....            ....            ....            ....        ",
"........            ....            ....            ........    ",
"........            ....            ....            ........    ",
"........            ....            ....            ........    ",
"........            ....            ....            ........    ",
"........                ................            ........    ",
"........                ................            ........    ",
"........                ................            ........    ",
"........                ................            ........    ",
"........                            ....            ........    ",
"........                            ....            ........    ",
"........                            ....            ........    ",
"........                            ....            ........    ",
"........                            ....            ........    ",
"........                            ....            ........    ",
"........                            ....            ........    ",
"........                            ....            ........    ",
"........                                            ........    ",
"........                                            ........    ",
"........                                            ........    ",
"........                                            ........    ",
"............                                    ............    ",
"............                                    ............    ",
"............                                    ............    ",
"............                                    ............    ",
"............................................................    ",
"............................................................    ",
"............................................................    ",
"............................................................    ",
"............................................................    ",
"............................................................    ",
"............................................................    ",
"............................................................    ",
"    ....................................................        ",
"    ....................................................        ",
"    ....................................................        ",
"    ....................................................        ",
"    ....................................................        ",
"    ....................................................        ",
"    ....................................................        ",
"    ....................................................        ",
"            ....................................                ",
"            ....................................                ",
"            ....................................                ",
"            ....................................                "};
