/* XPM */
static char * d_9_xpm[] = {
"64 64 2 1",
" 	c None",
".	c #FCE4C5",
"            ....................................                ",
"            ....................................                ",
"            ....................................                ",
"            ....................................                ",
"        ....                                    ....            ",
"        ....                                    ....            ",
"        ....                                    ....            ",
"        ....                                    ....            ",
"    ....                                            ....        ",
"    ....                                            ....        ",
"    ....                                            ....        ",
"    ....                                            ....        ",
"    ....                ............                ....        ",
"    ....                ............                ....        ",
"    ....                ............                ....        ",
"    ....                ............                ....        ",
"    ....            ....            ....            ....        ",
"    ....            ....            ....            ....        ",
"    ....            ....            ....            ....        ",
"    ....            ....            ....            ....        ",
"........            ....            ....            ........    ",
"........            ....            ....            ........    ",
"........            ....            ....            ........    ",
"........            ....            ....            ........    ",
"........                ................            ........    ",
"........                ................            ........    ",
"........                ................            ........    ",
"........                ................            ........    ",
"........                            ....            ........    ",
"........                            ....            ........    ",
"........                            ....            ........    ",
"........                            ....            ........    ",
"........                ............                ........    ",
"........                ............                ........    ",
"........                ............                ........    ",
"........                ............                ........    ",
"........                                            ........    ",
"........                                            ........    ",
"........                                            ........    ",
"........                                            ........    ",
"............                                    ............    ",
"............                                    ............    ",
"............                                    ............    ",
"............                                    ............    ",
"............................................................    ",
"............................................................    ",
"............................................................    ",
"............................................................    ",
"............................................................    ",
"............................................................    ",
"............................................................    ",
"............................................................    ",
"    ....................................................        ",
"    ....................................................        ",
"    ....................................................        ",
"    ....................................................        ",
"    ....................................................        ",
"    ....................................................        ",
"    ....................................................        ",
"    ....................................................        ",
"            ....................................                ",
"            ....................................                ",
"            ....................................                ",
"            ....................................                "};
