/* XPM */
static char * die_xpm[] = {
"64 64 6 1",
" 	c #65845C",
".	c #CBCCA3",
"+	c #A19977",
"@	c #F2F1F0",
"#	c #7A7356",
"$	c #3A5941",
"                                                                ",
"                                                                ",
"                                                                ",
"                                                                ",
"                                                                ",
"                                                                ",
"                                                                ",
"                                                                ",
"                                                                ",
"                                                                ",
"                                                                ",
"                                                                ",
"                            ........                            ",
"                            ........                            ",
"                            ........                            ",
"                            ........                            ",
"                            ++++++++                            ",
"                            ++++++++                            ",
"                            ++++++++                            ",
"                            ++++++++                            ",
"                    @@@@@@@@++++++++........                    ",
"                    @@@@@@@@++++++++........                    ",
"                    @@@@@@@@++++++++........                    ",
"                    @@@@@@@@++++++++........                    ",
"                    ++++++++++++++++++++++++                    ",
"                    ++++++++++++++++++++++++                    ",
"                    ++++++++++++++++++++++++                    ",
"                    ++++++++++++++++++++++++                    ",
"                            ++++++++                            ",
"                            ++++++++                            ",
"                            ++++++++                            ",
"                            ++++++++                            ",
"                            ++++++++                            ",
"                            ++++++++                            ",
"                            ++++++++                            ",
"                            ++++++++                            ",
"                            ++++++++                            ",
"                            ++++++++                            ",
"                            ++++++++                            ",
"                            ++++++++                            ",
"                            ++++++++                            ",
"                            ++++++++                            ",
"                            ++++++++                            ",
"                            ++++++++                            ",
"                            ++++++++                            ",
"                            ++++++++                            ",
"                            ++++++++                            ",
"                            ++++++++                            ",
"                        @@@@++++    ....                        ",
"                        @@@@++++    ....                        ",
"                        @@@@++++    ....                        ",
"                        @@@@++++    ....                        ",
"                        ########    ####$$$$$$$$    $$$$        ",
"                        ########    ####$$$$$$$$    $$$$        ",
"                        ########    ####$$$$$$$$    $$$$        ",
"                        ########    ####$$$$$$$$    $$$$        ",
"                                                                ",
"                                                                ",
"                                                                ",
"                                                                ",
"                                                                ",
"                                                                ",
"                                                                ",
"                                                                "};
