/* XPM */
static char * e_yw_xpm[] = {
"64 64 6 1",
" 	c #65845C",
".	c #CBCCA3",
"+	c #F2F1F0",
"@	c #A19977",
"#	c #3A5941",
"$	c #131414",
"                                                                ",
"                ...+++++++++@@                                  ",
"                ...+++++++++@@                                  ",
"               ....+++++++++@@@                                 ",
"               ....+++++++++@@@                                 ",
"            +++....+++++++++@@@@+++                             ",
"          ..+++....+++++++++@@@@+++@@                           ",
"         ...+++....+++++++++@@@@+++@@@                          ",
"        ....+++....+++++++++@@@@+++@@@@                         ",
"       .....+++....+++++++++@@@@+++@@@@@                        ",
"      ......+++....+++++++++@@@@+++@@@@@@                       ",
"     .......+++....+++++++++@@@@+++@@@@@@@                      ",
"    ........+++....+++++++++@@@@+++@@@@@@@@                     ",
"   .........+++....+++++++++@@@@+++@@@@@@@@                     ",
"   .........+++....+++++++++@@@@+++@@@@@@@@                     ",
"   .........+++....+++++++++@@@@+++@@@@@@@@                     ",
"   .........+++....+++...+++@@@@+++@@@@@@@@                     ",
"   .........+++....+++@@@+++@@@@+++@@@@@@@@                     ",
"   .........+++....+..@@@..+@@@@+++@@@@@@@@                     ",
"   .........+++....+@@@@@@@+@@@@+++@@@@@@@@                     ",
"   .........+++....+++@@@+++@@@@+++@@@@@@@@                     ",
"   .........+++....+++@@@+++@@@@+++@@@@@@@@                     ",
"   .........+++....+++@@@+++@@@@+++@@@@@@@@                     ",
"   .........+++....+++@@@+++@@@@+++@@@@@@@@                     ",
"   .........+++....++.@@@@++@@@@+++@@@@@@@@                     ",
"   .........+++....++.....++@@@@+++@@@@@@@@                     ",
"   .........+++....++@@@@@++@@@@+++@@@@@@@@                     ",
"   .........+++....+++++++++@@@@+++@@@@@@@@                     ",
"   .........+++....@@@@@@@@@@@@@+++@@@@@@@@                     ",
"   .........+++....@@@@@@@@@@@@@+++@@@@@@@@                     ",
"   .........+++....@@@@@@@@@@@@@+++@@@@@@@@                     ",
"   .........+++...@@@@@@@@@@@@@@+++@@@@@@@@        ###########  ",
"   .........+++.@@@@@@@@@@@@@@@@+++@@@@@@@@###################  ",
"   .........+++@@@@@@@@@@@@@@@@@+++@@@@@@@@###################  ",
"   .........@@@@@@@@@@@@@@@@@@@@@@@@@@@@@@@###################  ",
"   .........@@@@@@@@@@@@@@@@@@@@@@@@@@@@@@@###################  ",
"   .......@@@@@@@@@$$$$$$$$$@@@@@@@@@@@@@@@###################  ",
"   ......@@@@@@@@@$$$$$$$$$$$@@@@@@@@@@@@@@###################  ",
"   .....@@@@@@@@$$$$$$$$$$$$$$$@@@@@@@@@@@@###################  ",
"   ....@@@@@@@@$$$$$$$$$$$$$$$$$@@@@@@@@@@@###################  ",
"   ...@@@@@@@@.$$$$$$$$$$$$$$$$$+@@@@@@@@@@###################  ",
"   ..@@@@@@@@@.$$$$$$$$$$$$$$$$$+@@@@@@@@@@###################  ",
"   ..@@@@@@@@@.$$$$$$$$$$$$$$$$$+@@@@@@@@@@###################  ",
"     ..@@@@@@@.$$$$$$$$$$$$$$$$$+@@@@@@@@..###################  ",
"     ..@@@@@@@.$$$$$$$$$$$$$$$$$+@@@@@@@@..###################  ",
"     ..@@@@@@@.$$$$$$$$$$$$$$$$$+@@@@@@@@..###################  ",
"     ..@@@@@@@.$$$$$$$$$$$$$$$$$+@@@@@@@@..###################  ",
"     ..@@@@@@@.$$$$$$$$$$$$$$$$$+@@@@@@@@..###################  ",
"     ..@@@@@@@.$$$$$$$$$$$$$$$$$+@@@@@@@@..###################  ",
"     ..@@@@@@@.$$$$$$$$$$$$$$$$$+@@@@@@@@..###################  ",
"     ..@@@@@@@.$$$$$$$$$$$$$$$$$+@@@@@@@@..###################  ",
"     ..@@@@@@@.$$$$$$$$$$$$$$$$$+@@@@@@@@..###################  ",
"     ..@@@@@@@.$$$$$$$$$$$$$$$$$+@@@@@@@@..###################  ",
"     ..@@@@@@@.$$$$$$$$$$$$$$$$$+@@@@@@@@..###################  ",
"     ..@@@@@@@.$$$$$$$$$$$$$$$$$+@@@@@@@@..###################  ",
"     ..@@@@@@@.$$$$$$$$$$$$$$$$$+@@@@@@@@..###################  ",
"     ..@@@@@@@.$$$$$$$$$$$$$$$$$+@@@@@@@@..###################  ",
"     ..@@@@@@@.$$$$$$$$$$$$$$$$$+@@@@@@@@..###################  ",
"     ..@@@@@@@.$$$$$$$$$$$$$$$$$+@@@@@@@@..###################  ",
"     ..@@@@@@@.$$$$$$$$$$$$$$$$$+@@@@@@@@..###################  ",
"      ####################################         ###########  ",
"                ###############                                 ",
"                                                                ",
"                                                                "};
