/* XPM */
static char * p_il_4_xpm[] = {
"64 64 5 1",
" 	c #65845C",
".	c #2A2A2A",
"+	c #C89D25",
"@	c #EFEED2",
"#	c #C2701E",
"                                                                ",
"                                                                ",
"                                                                ",
"                                                                ",
"                                                                ",
"                                                                ",
"                                                                ",
"                                                                ",
"                                                                ",
"                                                                ",
"                                                                ",
"                                                                ",
"                                                                ",
"                                                                ",
"                                                                ",
"                                                                ",
"        ........    ........                                    ",
"        ........    ........                                    ",
"        ........    ........                                    ",
"        ........    ........                                    ",
"        ....++++....++++....                    ............    ",
"        ....++++....++++....                    ............    ",
"        ....++++....++++....                    ............    ",
"        ....++++....++++....                    ............    ",
"........@@@@++++++++++++........................++++++++....    ",
"........@@@@++++++++++++........................++++++++....    ",
"........@@@@++++++++++++........................++++++++....    ",
"........@@@@++++++++++++........................++++++++....    ",
"....####++++++++@@@@++++++++++++++++++++++++++++####....        ",
"....####++++++++@@@@++++++++++++++++++++++++++++####....        ",
"....####++++++++@@@@++++++++++++++++++++++++++++####....        ",
"....####++++++++@@@@++++++++++++++++++++++++++++####....        ",
"....++++++++++++++++++++++++++++++++++++++++++++....            ",
"....++++++++++++++++++++++++++++++++++++++++++++....            ",
"....++++++++++++++++++++++++++++++++++++++++++++....            ",
"....++++++++++++++++++++++++++++++++++++++++++++....            ",
"    ........####++++++++++++++++++++++++++++++++....            ",
"    ........####++++++++++++++++++++++++++++++++....            ",
"    ........####++++++++++++++++++++++++++++++++....            ",
"    ........####++++++++++++++++++++++++++++++++....            ",
"        ....########++++++++++++########++++++++....            ",
"        ....########++++++++++++########++++++++....            ",
"        ....########++++++++++++########++++++++....            ",
"        ....########++++++++++++########++++++++....            ",
"        ....####........++++....####........++++++++....        ",
"        ....####........++++....####........++++++++....        ",
"        ....####........++++....####........++++++++....        ",
"        ....####........++++....####........++++++++....        ",
"        ................++++....................++++....        ",
"        ................++++....................++++....        ",
"        ................++++....................++++....        ",
"        ................++++....................++++....        ",
"            ............................................        ",
"            ............................................        ",
"            ............................................        ",
"            ............................................        ",
"                                                                ",
"                                                                ",
"                                                                ",
"                                                                ",
"                                                                ",
"                                                                ",
"                                                                ",
"                                                                "};
