/* XPM */
static char * p_ir_3_xpm[] = {
"64 64 5 1",
" 	c #65845C",
".	c #2A2A2A",
"+	c #C89D25",
"@	c #C2701E",
"#	c #EFEED2",
"                                                                ",
"                                                                ",
"                                                                ",
"                                                                ",
"                                                                ",
"                                                                ",
"                                                                ",
"                                                                ",
"                                                                ",
"                                                                ",
"                                                                ",
"                                                                ",
"                                                                ",
"                                                                ",
"                                                                ",
"                                                                ",
"                                                                ",
"                                                                ",
"                                                                ",
"                                                                ",
"    ............                    ........    ........        ",
"    ............                    ........    ........        ",
"    ............                    ........    ........        ",
"    ............                    ........    ........        ",
"    ....++++++++............        ....++++....++++....        ",
"    ....++++++++............        ....++++....++++....        ",
"    ....++++++++............        ....++++....++++....        ",
"    ....++++++++............        ....++++....++++....        ",
"        ....@@@@++++++++++++............++++++++++++####........",
"        ....@@@@++++++++++++............++++++++++++####........",
"        ....@@@@++++++++++++............++++++++++++####........",
"        ....@@@@++++++++++++............++++++++++++####........",
"            ....++++++++++++++++++++++++++++####++++++++@@@@....",
"            ....++++++++++++++++++++++++++++####++++++++@@@@....",
"            ....++++++++++++++++++++++++++++####++++++++@@@@....",
"            ....++++++++++++++++++++++++++++####++++++++@@@@....",
"            ....++++++++++++++++++++++++++++++++++++++++++++....",
"            ....++++++++++++++++++++++++++++++++++++++++++++....",
"            ....++++++++++++++++++++++++++++++++++++++++++++....",
"            ....++++++++++++++++++++++++++++++++++++++++++++....",
"            ....++++++++@@@@@@@@++++++++++++++++@@@@........    ",
"            ....++++++++@@@@@@@@++++++++++++++++@@@@........    ",
"            ....++++++++@@@@@@@@++++++++++++++++@@@@........    ",
"            ....++++++++@@@@@@@@++++++++++++++++@@@@........    ",
"        ....++++++++........@@@@....++++........@@@@....        ",
"        ....++++++++........@@@@....++++........@@@@....        ",
"        ....++++++++........@@@@....++++........@@@@....        ",
"        ....++++++++........@@@@....++++........@@@@....        ",
"        ....++++....................++++................        ",
"        ....++++....................++++................        ",
"        ....++++....................++++................        ",
"        ....++++....................++++................        ",
"        ............................................            ",
"        ............................................            ",
"        ............................................            ",
"        ............................................            ",
"                                                                ",
"                                                                ",
"                                                                ",
"                                                                ",
"                                                                ",
"                                                                ",
"                                                                ",
"                                                                "};
