/* XPM */
static char * w_ew_xpm[] = {
"64 64 4 1",
" 	c #65845C",
".	c #63492C",
"+	c #3A5941",
"@	c #413325",
"                        ....    ++++                            ",
"                        ....    ++++                            ",
"                        ....    ++++                            ",
"                        ....    ++++                            ",
"                        ....    ++++                            ",
"                        ....    ++++                            ",
"                        ....    ++++                            ",
"                        ....    ++++                            ",
"                        ....    ++++                            ",
"                        ....    ++++                            ",
"                        ....    ++++                            ",
"                        ....    ++++                            ",
"                        @@@@    ++++                            ",
"                        @@@@    ++++                            ",
"                        @@@@....++++                            ",
"                        @@@@....++++                            ",
"                        @@@@....++++                            ",
"                        @@@@....++++                            ",
"                        @@@@....++++                            ",
"                        @@@@....++++                            ",
"                        ....@@@@++++                            ",
"                        ....@@@@++++                            ",
"                        ....@@@@++++                            ",
"                        ....@@@@++++                            ",
"                        ....@@@@++++++++                        ",
"                        ....@@@@++++++++                        ",
"                        ....@@@@++++++++                        ",
"                        ....@@@@++++++++                        ",
"                        ....@@@@++++++++                        ",
"                        ....@@@@++++++++                        ",
"                        ....@@@@++++++++                        ",
"                        ....@@@@++++++++                        ",
"                        ....    ++++                            ",
"                        ....    ++++                            ",
"                        ....    ++++                            ",
"                        ....    ++++                            ",
"                        ....    ++++                            ",
"                        ....    ++++                            ",
"                        ....    ++++                            ",
"                        ....    ++++                            ",
"                        ....    ++++                            ",
"                        ....    ++++                            ",
"                        ....    ++++                            ",
"                        ....    ++++                            ",
"                        @@@@....++++                            ",
"                        @@@@....++++                            ",
"                        @@@@....++++                            ",
"                        @@@@....++++                            ",
"                        @@@@....++++                            ",
"                        @@@@....++++                            ",
"                        @@@@....++++                            ",
"                        @@@@....++++                            ",
"                        ....@@@@++++                            ",
"                        ....@@@@++++                            ",
"                        ....@@@@++++                            ",
"                        ....@@@@++++                            ",
"                        ....@@@@++++++++                        ",
"                        ....@@@@++++++++                        ",
"                        ....@@@@++++++++                        ",
"                        ....@@@@++++++++                        ",
"                        ....@@@@++++++++                        ",
"                        ....@@@@++++++++                        ",
"                        ....@@@@++++++++                        ",
"                        ....@@@@++++++++                        "};
