/* XPM */
static char * w_ns2_xpm[] = {
"64 64 5 1",
" 	c #65845C",
".	c #63492C",
"+	c #413325",
"@	c #28221F",
"#	c #3A5941",
"                                                                ",
"                                                                ",
"                                                                ",
"                                                                ",
"                                                                ",
"                                                                ",
"                                                                ",
"                                                                ",
"                                                                ",
"                                                                ",
"                                                                ",
"                                                                ",
"                                                                ",
"                                                                ",
"                                                                ",
"                                                                ",
"                                                                ",
"                                                                ",
"                                                                ",
"                                                                ",
"                                                                ",
"                                                                ",
"            ........                        ........            ",
"            ........                        ........            ",
"            ........                        ........            ",
"            ........                        ........            ",
"            ++++++++                        ++++++++            ",
"            ++++++++                        ++++++++            ",
"            ++++++++                        ++++++++            ",
"            ++++++++                        ++++++++            ",
"................................................................",
"................................................................",
"................................................................",
"................................................................",
"++++++++++++++++++++++++++++++++++++++++++++++++++++++++++++++++",
"++++++++++++++++++++++++++++++++++++++++++++++++++++++++++++++++",
"++++++++++++++++++++++++++++++++++++++++++++++++++++++++++++++++",
"++++++++++++++++++++++++++++++++++++++++++++++++++++++++++++++++",
"            @@@@@@@@                        @@@@@@@@            ",
"            @@@@@@@@                        @@@@@@@@            ",
"            @@@@@@@@                        @@@@@@@@            ",
"            @@@@@@@@                        @@@@@@@@            ",
"            ++++@@@@                        ++++@@@@            ",
"            ++++@@@@                        ++++@@@@            ",
"            ++++@@@@                        ++++@@@@            ",
"            ++++@@@@                        ++++@@@@            ",
"############++++++++########################++++++++############",
"############++++++++########################++++++++############",
"############++++++##########################++++++++############",
"############++++++##########################++++++++############",
"                                                                ",
"                                                                ",
"                                                                ",
"                                                                ",
"                                                                ",
"                                                                ",
"                                                                ",
"                                                                ",
"                                                                ",
"                                                                ",
"                                                                ",
"                                                                ",
"                                                                ",
"                                                                "};
