/* XPM */
static char * w_sw_xpm[] = {
"64 64 8 1",
" 	c #65845C",
".	c #63492C",
"+	c #3A5941",
"@	c #ACC2C3",
"#	c #869598",
"$	c #5F6367",
"%	c #413325",
"&	c #3A3B3D",
"                        ....    ++++                            ",
"                        ....    ++++                            ",
"                        ....    ++++                            ",
"                        ....    ++++                            ",
"                        ....    ++++                            ",
"                        ....    ++++                            ",
"                        ....    ++++                            ",
"                        ....    ++++                            ",
"                        ....    ++++                            ",
"                        ....    ++++                            ",
"                        ....    ++++                            ",
"                        ....    ++++                            ",
"                    @@@@@@@@    @@@@                            ",
"                    @@@@@@@@    @@@@                            ",
"                    @@@@@@@@    @@@@                            ",
"                    @@@@@@@@    @@@@                            ",
"                @@@@@@@@@@@@####@@@@####                        ",
"                @@@@@@@@@@@@####@@@@####                        ",
"                @@@@@@@@@@@@####@@@@####                        ",
"                @@@@@@@@@@@@####@@@@####                        ",
"                @@@@@@@@@@@@####@@@@####                        ",
"                @@@@@@@@@@@@####@@@@####                        ",
"                @@@@@@@@@@@@####@@@@####                        ",
"                @@@@@@@@@@@@####@@@@####                        ",
"                @@@@$$$$$$$$####$$$$####                        ",
"                @@@@$$$$$$$$####$$$$####                        ",
"                @@@@$$$$$$$$####$$$$####                        ",
"                @@@@$$$$$$$$####$$$$####                        ",
"                @@@@@@@@@@@@@@@@####$$$$                        ",
"                @@@@@@@@@@@@@@@@####$$$$                        ",
"................@@@@@@@@@@@@@@@@####$$$$                        ",
"................@@@@@@@@@@@@@@@@####$$$$                        ",
"................$$$$$$$$$$$$$$$$$$$$                            ",
"................$$$$$$$$$$$$$$$$$$$$                            ",
"%%%%%%%%%%%%%%%%$$$$$$$$$$$$$$$$$$$$                            ",
"%%%%%%%%%%%%%%%%$$$$$$$$$$$$$$$$$$$$                            ",
"%%%%%%%%%%%%%%%%%%%%&&&&&&&&&&&&&&&&                            ",
"%%%%%%%%%%%%%%%%%%%%&&&&&&&&&&&&&&&&                            ",
"                    &&&&&&&&&&&&&&&&                            ",
"                    &&&&&&&&&&&&&&&&                            ",
"                @@@@$$$$$$$$&&&&&&&&####                        ",
"                @@@@$$$$$$$$&&&&&&&&####                        ",
"                @@@@$$$$$$$$&&&&&&&&####                        ",
"                @@@@$$$$$$$$&&&&&&&&####                        ",
"                @@@@$$$$$$$$$$$$&&&&####                        ",
"                @@@@$$$$$$$$$$$$&&&&####                        ",
"++++++++++++++++@@@@$$$$$$$$$$$$&&&&####                        ",
"++++++++++++++++@@@@$$$$$$$$$$$$&&&&####                        ",
"++++++++++++++++@@@@$$$$$$$$$$$$&&&&####                        ",
"++++++++++++++++@@@@$$$$$$$$$$$$&&&&####                        ",
"                @@@@$$$$$$$$$$$$&&&&####                        ",
"                @@@@$$$$$$$$$$$$&&&&####                        ",
"                @@@@@@@@    ############                        ",
"                @@@@@@@@    ############                        ",
"                @@@@@@@@    ############                        ",
"                @@@@@@@@    ############                        ",
"                $$$$$$$$    &&&&    &&&&                        ",
"                $$$$$$$$    &&&&    &&&&                        ",
"                $$$$$$$$    &&&&    &&&&                        ",
"                $$$$$$$$    &&&&    &&&&                        ",
"                                                                ",
"                                                                ",
"                                                                ",
"                                                                "};
