/* XPM */
static char * w_se_xpm[] = {
"64 64 9 1",
" 	c #65845C",
".	c #63492C",
"+	c #3A5941",
"@	c #ACC2C3",
"#	c #869598",
"$	c #5F6367",
"%	c #28221F",
"&	c #413325",
"*	c #3A3B3D",
"                        ....    ++++                            ",
"                        ....    ++++                            ",
"                        ....    ++++                            ",
"                        ....    ++++                            ",
"                        ....    ++++                            ",
"                        ....    ++++                            ",
"                        ....    ++++                            ",
"                        ....    ++++                            ",
"                        ....    ++++                            ",
"                        ....    ++++                            ",
"                        ....    ++++                            ",
"                        ....    ++++                            ",
"                    @@@@@@@@@@@@@@@@++++                        ",
"                    @@@@@@@@@@@@@@@@++++                        ",
"                    @@@@@@@@@@@@@@@@++++                        ",
"                    @@@@@@@@@@@@@@@@++++                        ",
"                @@@@@@@@@@@@@@@@@@@@####                        ",
"                @@@@@@@@@@@@@@@@@@@@####                        ",
"                @@@@@@@@@@@@@@@@@@@@####                        ",
"                @@@@@@@@@@@@@@@@@@@@####                        ",
"                @@@@@@@@@@@@@@@@@@@@####                        ",
"                @@@@@@@@@@@@@@@@@@@@####                        ",
"                @@@@@@@@@@@@@@@@@@@@####                        ",
"                @@@@@@@@@@@@@@@@@@@@####                        ",
"                @@@@$$$$$$$$$$$$$$$$####                        ",
"                @@@@$$$$$$$$$$$$$$$$####                        ",
"                @@@@$$$$$$$$$$$$$$$$####                        ",
"                @@@@$$$$$$$$$$$$$$$$####                        ",
"                @@@@@@@@@@@@@@@@########                        ",
"                @@@@@@@@@@@@@@@@########                        ",
"                @@@@@@@@@@@@@@@@########%%%%....................",
"                @@@@@@@@@@@@@@@@########%%%%....................",
"                $$$$$$$$$$$$$$$$$$$$$$$$%%%%....................",
"                $$$$$$$$$$$$$$$$$$$$$$$$%%%%....................",
"                $$$$$$$$$$$$$$$$$$$$$$$$&&&&&&&&&&&&&&&&&&&&&&&&",
"                $$$$$$$$$$$$$$$$$$$$$$$$&&&&&&&&&&&&&&&&&&&&&&&&",
"                    ****************&&&&&&&&&&&&&&&&&&&&&&&&&&&&",
"                    ****************&&&&&&&&&&&&&&&&&&&&&&&&&&&&",
"                    ****************                            ",
"                    ****************                            ",
"                @@@@$$$$$$$$********####                        ",
"                @@@@$$$$$$$$********####                        ",
"                @@@@$$$$$$$$********####                        ",
"                @@@@$$$$$$$$********####                        ",
"                @@@@$$$$$$$$$$$$****####++++++++        ++++    ",
"                @@@@$$$$$$$$$$$$****####++++++++        ++++    ",
"                @@@@$$$$$$$$$$$$****####++++++++++++++++++++++++",
"                @@@@$$$$$$$$$$$$****####++++++++++++++++++++++++",
"                @@@@$$$$$$$$$$$$****####++++++++++++++++++++++++",
"                @@@@$$$$$$$$$$$$****####++++++++++++++++++++++++",
"                @@@@$$$$$$$$$$$$****####++++++++++++++++++++++++",
"                @@@@$$$$$$$$$$$$****####++++++++++++++++++++++++",
"                @@@@@@@@################++++++++++++++++++++++++",
"                @@@@@@@@################++++++++++++++++++++++++",
"                @@@@@@@@################++++++++++++++++++++++++",
"                @@@@@@@@################++++++++++++++++++++++++",
"                $$$$$$$$$$$$************++++++++        ++++    ",
"                $$$$$$$$$$$$************++++++++        ++++    ",
"                $$$$$$$$$$$$************++++++++        ++++    ",
"                $$$$$$$$$$$$************++++++++        ++++    ",
"                                                                ",
"                                                                ",
"                                                                ",
"                                                                "};
