/* XPM */
static char * w_t_xpm[] = {
"64 64 6 1",
" 	c #65845C",
".	c #ACC2C3",
"+	c #869598",
"@	c #5F6367",
"#	c #3A3B3D",
"$	c #3A5941",
"                                                                ",
"                                                                ",
"                                                                ",
"                                                                ",
"                                                                ",
"                                                                ",
"                                                                ",
"                                                                ",
"                                                                ",
"                                                                ",
"                                                                ",
"                                                                ",
"            ........................                            ",
"            ........................                            ",
"            ........................                            ",
"            ........................                            ",
"        ............................++++                        ",
"        ............................++++                        ",
"        ............................++++                        ",
"        ............................++++                        ",
"        ....@@@@@@@@@@@@@@@@@@@@@@@@++++                        ",
"        ....@@@@@@@@@@@@@@@@@@@@@@@@++++                        ",
"        ....@@@@@@@@@@@@@@@@@@@@@@@@++++                        ",
"        ....@@@@@@@@@@@@@@@@@@@@@@@@++++                        ",
"        @@@@@@@@@@@@@@@@@@@@@@@@@@@@@@@@                        ",
"        @@@@@@@@@@@@@@@@@@@@@@@@@@@@@@@@                        ",
"        @@@@@@@@@@@@@@@@@@@@@@@@@@@@@@@@                        ",
"        @@@@@@@@@@@@@@@@@@@@@@@@@@@@@@@@                        ",
"        @@@@@@@@################@@@@@@@@                        ",
"        @@@@@@@@################@@@@@@@@                        ",
"        @@@@@@@@################@@@@@@@@                        ",
"        @@@@@@@@################@@@@@@@@                        ",
"        @@@@@@@@@@@@@@@@@@@@@@@@@@@@@@@@                        ",
"        @@@@@@@@@@@@@@@@@@@@@@@@@@@@@@@@                        ",
"        @@@@@@@@@@@@@@@@@@@@@@@@@@@@@@@@                        ",
"        @@@@@@@@@@@@@@@@@@@@@@@@@@@@@@@@                        ",
"        @@@@@@@@################@@@@@@@@                        ",
"        @@@@@@@@################@@@@@@@@                        ",
"        @@@@@@@@################@@@@@@@@                        ",
"        @@@@@@@@################@@@@@@@@                        ",
"    ++++@@@@@@@@@@@@@@@@@@@@@@@@@@@@@@@@++++                    ",
"    ++++@@@@@@@@@@@@@@@@@@@@@@@@@@@@@@@@++++                    ",
"    ++++@@@@@@@@@@@@@@@@@@@@@@@@@@@@@@@@++++                    ",
"    ++++@@@@@@@@@@@@@@@@@@@@@@@@@@@@@@@@++++                    ",
"    ++++@@@@@@@@################@@@@@@@@++++$$$$                ",
"    ++++@@@@@@@@################@@@@@@@@++++$$$$                ",
"    ++++@@@@@@@@################@@@@@@@@++++$$$$                ",
"    ++++@@@@@@@@################@@@@@@@@++++$$$$                ",
"    ++++@@@@@@@@@@@@@@@@@@@@@@@@@@@@@@@@++++$$$$$$$$$$$$$$$$    ",
"    ++++@@@@@@@@@@@@@@@@@@@@@@@@@@@@@@@@++++$$$$$$$$$$$$$$$$    ",
"    ++++@@@@@@@@@@@@@@@@@@@@@@@@@@@@@@@@++++$$$$$$$$$$$$$$$$    ",
"    ++++@@@@@@@@@@@@@@@@@@@@@@@@@@@@@@@@++++$$$$$$$$$$$$$$$$    ",
"    ++++++++++++    ++++++++    ++++++++++++$$$$$$$$$$$$$$$$$$$$",
"    ++++++++++++    ++++++++    ++++++++++++$$$$$$$$$$$$$$$$$$$$",
"    ++++++++++++    ++++++++    ++++++++++++$$$$$$$$$$$$$$$$$$$$",
"    ++++++++++++    ++++++++    ++++++++++++$$$$$$$$$$$$$$$$$$$$",
"    ########        ########    ####    ####$$$$                ",
"    ########        ########    ####    ####$$$$                ",
"    ########        ########    ####    ####$$$$                ",
"    ########        ########    ####    ####$$$$                ",
"                                                                ",
"                                                                ",
"                                                                ",
"                                                                "};
