/* XPM */
static char * x_r_4_xpm[] = {
"64 64 5 1",
" 	c #65845C",
".	c #3E3F3F",
"+	c #CBCCA3",
"@	c #F2F1F0",
"#	c #A19977",
"                    ........................                    ",
"                    ........................                    ",
"                    ........................                    ",
"                    ........................                    ",
"                ....++++@@@@@@@@@@@@@@@@++++....                ",
"                ....++++@@@@@@@@@@@@@@@@++++....                ",
"                ....++++@@@@@@@@@@@@@@@@++++....                ",
"                ....++++@@@@@@@@@@@@@@@@++++....                ",
"            ....++++@@@@@@@@@@@@@@@@@@@@@@@@++++....            ",
"            ....++++@@@@@@@@@@@@@@@@@@@@@@@@++++....            ",
"            ....++++@@@@@@@@@@@@@@@@@@@@@@@@++++....            ",
"            ....++++@@@@@@@@@@@@@@@@@@@@@@@@++++....            ",
"            ....++++@@@@@@@@@@@@@@@@@@@@@@@@++++....            ",
"            ....++++@@@@@@@@@@@@@@@@@@@@@@@@++++....            ",
"            ....++++@@@@@@@@@@@@@@@@@@@@@@@@++++....            ",
"            ....++++@@@@@@@@@@@@@@@@@@@@@@@@++++....            ",
"            ....++++........@@@@@@@@........++++....            ",
"            ....++++........@@@@@@@@........++++....            ",
"            ....++++........@@@@@@@@........++++....            ",
"            ....++++........@@@@@@@@........++++....            ",
"            ....++++........@@@@@@@@........++++....            ",
"            ....++++........@@@@@@@@........++++....            ",
"            ....++++........@@@@@@@@........++++....            ",
"            ....++++........@@@@@@@@........++++....            ",
"                ....++++@@@@@@@@@@@@@@@@++++....                ",
"                ....++++@@@@@@@@@@@@@@@@++++....                ",
"                ....++++@@@@@@@@@@@@@@@@++++....                ",
"                ....++++@@@@@@@@@@@@@@@@++++....                ",
"                ....++++####++++++++####++++....                ",
"                ....++++####++++++++####++++....                ",
"                ....++++####++++++++####++++....                ",
"                ....++++####++++++++####++++....                ",
"                    ........########........                    ",
"                    ........########........                    ",
"                    ........########........                    ",
"                    ........########........                    ",
"                            ........                            ",
"                            ........                            ",
"                            ........                            ",
"                            ........                            ",
"                                        ........                ",
"                                        ........                ",
"                                        ........                ",
"                                        ........                ",
"                    ....................++++++++....            ",
"                    ....................++++++++....            ",
"                    ....................++++++++....            ",
"                    ....................++++++++....            ",
"                ....@@@@++++++++++++++++@@@@####++++....        ",
"                ....@@@@++++++++++++++++@@@@####++++....        ",
"                ....@@@@++++++++++++++++@@@@####++++....        ",
"                ....@@@@++++++++++++++++@@@@####++++....        ",
"                ....@@@@@@@@@@@@@@@@@@@@@@@@####++++....        ",
"                ....@@@@@@@@@@@@@@@@@@@@@@@@####++++....        ",
"                ....@@@@@@@@@@@@@@@@@@@@@@@@####++++....        ",
"                ....@@@@@@@@@@@@@@@@@@@@@@@@####++++....        ",
"            ....++++@@@@####........####@@@@++++....            ",
"            ....++++@@@@####........####@@@@++++....            ",
"            ....++++@@@@####........####@@@@++++....            ",
"            ....++++@@@@####........####@@@@++++....            ",
"            ....@@@@@@@@....        ....@@@@@@@@....            ",
"            ....@@@@@@@@....        ....@@@@@@@@....            ",
"            ....@@@@@@@@....        ....@@@@@@@@....            ",
"            ....@@@@@@@@....        ....@@@@@@@@....            "};
